<?xml version="1.0" encoding="UTF-8"?><svg id="a" xmlns="http://www.w3.org/2000/svg" viewBox="0 0 157.1 120"><path d="M143.7,42.7c1.1-4.1,1.9-7,2.2-8.2,1.9-6.1,3.7-15.2-2-22.5-5.2-6.8-15.2-7-16.3-7H26.3c-1.1,0-11.1.2-16.3,7-5.7,7.4-3.8,16.4-2,22.5.3,1.1,1.1,4.1,2.2,8.2h-5.2v10.6h7.9c5.3,20.5,12.8,50.2,13.3,52,.8,3.7,4.8,9.7,14.9,9.7h71.1c10.1,0,14.1-6,14.9-9.6.5-2,8.3-31.6,13.7-52.1h11.3v-10.6h-8.4ZM122.3,104.2s-1.2,5.8-10,5.8H41.1c-8.9,0-10-5.8-10-5.8,0,0-7.6-29.7-13-50.9h117.6c-5.6,21.2-13.4,50.9-13.4,50.9M141.2,33.1c-.4,1.3-1.3,4.8-2.6,9.6H15.3c-1.3-4.8-2.2-8.3-2.6-9.6-2-6.5-2.7-12.9,1.2-18,3.9-5.1,12.4-5.1,12.4-5.1h101.3s8.5,0,12.4,5.1c3.9,5.1,3.1,11.5,1.2,18" style="fill:#fff; stroke-width:0px;"/><path d="M62.5,29.2v-13.9c0-1-.6-.9-.6-.9h-2.5c-.7,0-.9.6-.9.6l-4.5,8.8-4.5-8.8s-.2-.6-.9-.6h-2.6s-.6,0-.6.9v13.9s0,.6.5.6h1.6s.7.1.7-.5v-9.9l5,9.7h1.3l5-9.7v9.9c0,.7.7.5.7.5h1.6c.6,0,.5-.6.5-.6" style="fill:#fff; stroke-width:0px;"/><path d="M70.6,29.2v-14.2c0-.3-.3-.6-.6-.6h-1.7c-.3,0-.6.3-.6.6v14.2c0,.3.3.6.6.6h1.7c.3,0,.6-.3.6-.6" style="fill:#fff; stroke-width:0px;"/><path d="M89.3,29.2l-3.7-6.2c2-.4,3.5-2.2,3.5-4.3,0-4.1-3.3-4.4-4.5-4.4h-9.1c-.3,0-.6.3-.6.6v.3h0v13.9c0,.3.3.6.6.6h1.7c.3,0,.6-.3.6-.6v-6h4.3l3.6,6.1c.2.4.6.6.9.6h2.4c.3,0,.5-.1.3-.6M77.9,20.6v-3.6h6.8c1,0,1.8.8,1.8,1.8s-.8,1.8-1.8,1.8h-6.8Z" style="fill:#fff; stroke-width:0px;"/><path d="M106.4,29.3c.3,0,.5-.1.1-.6l-6.6-8.4c2.6-2.2,5.3-4.5,6-5.1,1.3-1.2-.2-1.2-.2-1.2h-2.3c-.7,0-1.4.6-1.4.6l-6.8,6.2v-5.8c0-.3-.3-.6-.6-.6h-1.7c-.3,0-.6.3-.6.6v14.2c0,.3.3.6.6.6h1.7c.3,0,.6-.3.6-.6v-4.9c.5-.4,1.5-1.2,2.6-2.2l5.2,6.6c.3.4.7.6,1,.6h2.4Z" style="fill:#fff; stroke-width:0px;"/><rect x="29.5" y="34.6" width=".9" height="5.9" style="fill:#fff; stroke-width:0px;"/><polygon points="38.4 39.1 35.7 34.6 34.6 34.6 34.6 40.5 35.5 40.5 35.5 36 38.3 40.5 39.3 40.5 39.3 34.6 38.4 34.6 38.4 39.1" style="fill:#fff; stroke-width:0px;"/><path d="M47.5,38.3c0,.3-.2.6-.3.8-.1.2-.3.3-.4.5-.1.1-.3.2-.4.2-.2,0-.3,0-.4,0-.3,0-.6,0-.9-.2-.2-.1-.4-.3-.6-.5-.1-.2-.2-.4-.3-.7,0-.3,0-.6,0-.9s0-.7.1-1c0-.3.2-.5.4-.7.2-.2.4-.3.6-.4.2,0,.5-.1.7-.1s.3,0,.4,0c.2,0,.3,0,.5.2.1,0,.3.2.4.3.1.1.2.3.2.6h0c0,0,.9,0,.9,0h0c0-.3-.1-.6-.2-.8-.1-.2-.3-.4-.5-.6-.2-.2-.4-.3-.7-.4-.3-.1-.6-.2-1-.2s-.8,0-1.2.2c-.3.2-.6.4-.9.6-.2.3-.4.6-.5,1-.1.4-.2.8-.2,1.2s0,1,.2,1.4c.1.4.4.7.6,1,.2.2.5.4.9.5.3.1.6.2,1,.2s.2,0,.3,0c.1,0,.3,0,.5,0,.2,0,.4-.1.5-.2.2,0,.4-.2.5-.4.2-.2.3-.4.4-.6.1-.3.2-.6.3-.9h0c0,0-.9,0-.9,0h0Z" style="fill:#fff; stroke-width:0px;"/><path d="M57.4,36.2c0-.2-.2-.4-.4-.7-.1-.2-.3-.4-.5-.6-.2-.2-.5-.3-.7-.4-.3,0-.6-.1-1-.1s-.7,0-1,.1c-.3,0-.5.2-.7.4-.2.2-.4.3-.5.6-.1.2-.3.4-.4.7,0,.2-.2.5-.2.7,0,.2,0,.5,0,.7s0,.4,0,.7c0,.2.1.5.2.7,0,.2.2.4.4.7.1.2.3.4.5.6.2.2.5.3.7.4.3,0,.6.1,1,.1s.7,0,1-.1c.3,0,.5-.2.7-.4.2-.2.4-.3.5-.6.1-.2.3-.4.4-.7,0-.2.2-.5.2-.7,0-.2,0-.5,0-.7s0-.4,0-.7c0-.2-.1-.5-.2-.7M56.6,38.5c0,.3-.2.5-.4.7-.2.2-.4.4-.6.5-.2.1-.5.2-.8.2s-.6,0-.8-.2c-.2-.1-.4-.3-.6-.5-.2-.2-.3-.4-.4-.7,0-.3-.1-.6-.1-.9s0-.6.1-.9c0-.3.2-.5.4-.7.2-.2.4-.4.6-.5.2-.1.5-.2.8-.2s.6,0,.8.2c.2.1.4.3.6.5.2.2.3.4.4.7,0,.3.1.6.1.9s0,.6-.1.9" style="fill:#fff; stroke-width:0px;"/><path d="M66.3,40.1s0,0,0,0c0,0,0,0,0-.1,0,0,0-.1,0-.2v-1c0-.2,0-.4-.1-.5,0-.1,0-.2-.2-.3,0,0-.1-.2-.2-.2,0,0,0,0-.1,0,0,0,.1,0,.2-.1.1,0,.2-.2.3-.3,0-.1.1-.2.2-.4,0-.2,0-.3,0-.6,0-.3,0-.6-.2-.8-.1-.2-.3-.4-.5-.5-.2-.1-.4-.2-.6-.3-.2,0-.5,0-.7,0h-2.7v5.9h.9v-2.5h1.8c.2,0,.4,0,.5,0,.1,0,.2.1.3.2,0,0,.1.2.1.3,0,.1,0,.2,0,.3s0,.1,0,.3c0,.1,0,.3,0,.4,0,.1,0,.3,0,.4,0,.1,0,.3,0,.4h0c0,0,1.1,0,1.1,0v-.3h0c0,0,0,0-.1-.1M65.2,36.8c0,.1-.1.2-.2.3,0,0-.2.1-.3.1-.1,0-.3,0-.4,0h-1.7v-1.8h1.9c0,0,.2,0,.3,0,.1,0,.2,0,.3.1,0,0,.2.1.2.3,0,.1,0,.3,0,.5s0,.4,0,.5" style="fill:#fff; stroke-width:0px;"/><path d="M74.3,35.1c-.2-.2-.3-.3-.6-.4-.2,0-.5-.1-.7-.1h-2.7v5.9h.9v-2.4h1.7c.3,0,.6,0,.8-.2.2-.1.4-.2.6-.4.1-.2.2-.4.3-.6,0-.2,0-.4,0-.6s0-.5-.1-.7c0-.2-.2-.4-.4-.5M73.8,36.8h0c0,.1-.1.2-.2.3,0,0-.2.1-.3.2-.1,0-.3,0-.5,0h-1.5v-1.8h1.5c.2,0,.3,0,.4,0,.1,0,.2,0,.3.1,0,0,.2.2.2.3,0,.1,0,.3,0,.4s0,.3,0,.5" style="fill:#fff; stroke-width:0px;"/><path d="M83.8,36.2c0-.2-.2-.4-.4-.7-.1-.2-.3-.4-.5-.6-.2-.2-.5-.3-.8-.4-.3,0-.6-.1-1-.1s-.7,0-1,.1c-.3,0-.5.2-.7.4-.2.2-.4.3-.5.6-.1.2-.3.4-.4.7,0,.2-.2.5-.2.7,0,.2,0,.5,0,.7s0,.4,0,.7c0,.2.1.5.2.7,0,.2.2.4.4.7.1.2.3.4.5.6.2.2.5.3.7.4.3,0,.6.1,1,.1s.7,0,1-.1c.3,0,.5-.2.8-.4.2-.2.4-.3.5-.6.1-.2.3-.4.4-.7,0-.2.2-.5.2-.7,0-.2,0-.5,0-.7s0-.4,0-.7c0-.2-.1-.5-.2-.7M83,38.5c0,.3-.2.5-.4.7-.2.2-.4.4-.6.5-.2.1-.5.2-.8.2s-.6,0-.8-.2c-.2-.1-.4-.3-.6-.5-.2-.2-.3-.4-.4-.7,0-.3-.1-.6-.1-.9s0-.6.1-.9c0-.3.2-.5.4-.7.2-.2.4-.4.6-.5.2-.1.5-.2.8-.2s.6,0,.8.2c.2.1.4.3.6.5.2.2.3.4.4.7,0,.3.1.6.1.9s0,.6-.1.9" style="fill:#fff; stroke-width:0px;"/><path d="M92.7,40.1s0,0,0,0h0s0,0,0-.1c0,0,0-.1,0-.2v-1c0-.2,0-.4-.1-.5,0-.1,0-.2-.2-.3,0,0-.2-.2-.2-.2,0,0,0,0-.1,0,0,0,.1,0,.2-.1.1,0,.2-.2.3-.3,0-.1.1-.2.2-.4,0-.2,0-.3,0-.6,0-.3,0-.6-.2-.8-.1-.2-.3-.4-.5-.5-.2-.1-.4-.2-.6-.3-.2,0-.5,0-.7,0h-2.7v5.9h.9v-2.5h1.8c.2,0,.4,0,.5,0,.1,0,.2.1.3.2,0,0,.1.2.1.3,0,.1,0,.2,0,.3s0,.1,0,.3c0,.1,0,.3,0,.4,0,.1,0,.3,0,.4,0,.1,0,.3,0,.4h0c0,0,1.1,0,1.1,0v-.3h0c0,0,0,0-.1-.1M91.6,36.8c0,.1-.1.2-.2.3-.1,0-.2.1-.3.1-.1,0-.3,0-.4,0h-1.7v-1.8h1.9c0,0,.2,0,.3,0,.1,0,.2,0,.3.1,0,0,.2.1.2.3,0,.1,0,.3,0,.5s0,.4,0,.5" style="fill:#fff; stroke-width:0px;"/><path d="M99.4,34.6h-1l-2.2,5.9h1l.6-1.7h2.2l.6,1.7h1l-2.1-5.8h0ZM98,38l.8-2.2.7,2.2h-1.6Z" style="fill:#fff; stroke-width:0px;"/><polygon points="103.6 35.4 105.6 35.4 105.6 40.5 106.5 40.5 106.5 35.4 108.4 35.4 108.4 34.6 103.6 34.6 103.6 35.4" style="fill:#fff; stroke-width:0px;"/><polygon points="113 37.9 116.2 37.9 116.2 37 113 37 113 35.4 116.4 35.4 116.4 34.6 112.1 34.6 112.1 40.5 116.5 40.5 116.5 39.6 113 39.6 113 37.9" style="fill:#fff; stroke-width:0px;"/><path d="M124.7,35.4h0c-.2-.3-.5-.5-.8-.6-.3-.1-.7-.2-1-.2h-2.4v5.9h2.4c.5,0,.9,0,1.2-.3.3-.2.6-.4.8-.7.2-.3.3-.6.4-1,0-.4.1-.7.1-1s0-.8-.2-1.2c-.1-.3-.3-.7-.5-.9M123.9,39.1c-.3.4-.7.5-1.1.5h-1.4v-4.3h1.4c.5,0,.9.2,1.2.5.3.3.4.9.4,1.6s-.1,1.3-.4,1.6" style="fill:#fff; stroke-width:0px;"/><path d="M24.8,64.2l.7-1.9h2.5l.6,1.9h1.1l-2.4-6.7h-1.1l-2.5,6.7h1.1ZM26.7,58.8l.9,2.6h-1.8l.9-2.6Z" style="fill:#fff; stroke-width:0px;"/><polygon points="37 63.3 33.1 63.3 33.1 61.2 36.6 61.2 36.6 60.3 33.1 60.3 33.1 58.5 36.9 58.5 36.9 57.5 32 57.5 32 64.2 37 64.2 37 63.3" style="fill:#fff; stroke-width:0px;"/><path d="M40.8,61.4h2c.2,0,.4,0,.6,0,.1,0,.2.1.3.2,0,.1.1.2.1.3,0,.1,0,.3,0,.4s0,.2,0,.3c0,.1,0,.3,0,.5,0,.2,0,.3,0,.5,0,.2,0,.3,0,.4h0c0,0,1.2,0,1.2,0v-.3h0c0,0-.1,0-.1-.1,0,0,0,0,0-.1,0,0,0,0,0-.1,0,0,0-.1,0-.2v-1.2c0-.2,0-.4-.1-.6,0-.1-.1-.3-.2-.4,0,0-.2-.2-.3-.2,0,0,0,0-.1,0,0,0,.1,0,.2-.1.1,0,.2-.2.3-.3,0-.1.2-.3.2-.5,0-.2,0-.4,0-.6,0-.4,0-.7-.2-.9-.1-.2-.3-.4-.5-.6-.2-.1-.4-.2-.7-.3-.3,0-.5,0-.8,0h-3.1v6.7h1v-2.8ZM40.8,58.4h2.1c.1,0,.2,0,.4,0,.1,0,.2,0,.3.1.1,0,.2.2.3.3,0,.1.1.3.1.6s0,.4-.1.5c0,.1-.2.2-.3.3-.1,0-.2.1-.4.2-.2,0-.3,0-.5,0h-2v-2.1Z" style="fill:#fff; stroke-width:0px;"/><rect x="47.9" y="57.5" width="1" height="6.7" style="fill:#fff; stroke-width:0px;"/><path d="M53.1,62.3h2.5l.6,1.9h1.1l-2.4-6.7h-1.1l-2.5,6.7h1.1l.7-1.9ZM54.3,58.8l.9,2.6h-1.8l.9-2.6Z" style="fill:#fff; stroke-width:0px;"/><polygon points="63.9 63.3 60.6 63.3 60.6 57.5 59.6 57.5 59.6 64.2 63.9 64.2 63.9 63.3" style="fill:#fff; stroke-width:0px;"/><path d="M71.4,60.3s0-.1,0-.3c0-.1,0-.3,0-.4s0-.3,0-.5c0,0,0,0,0,0l1.7,5h0c0,0,1,0,1,0l1.7-5.1s0,0,0,0c0,.2,0,.3,0,.5s0,.3,0,.4c0,.1,0,.2,0,.3v3.9h1v-6.7h-1.4l-1.8,5.4-1.8-5.4h-1.4v6.7h1v-3.9Z" style="fill:#fff; stroke-width:0px;"/><path d="M80.7,62.3h2.5l.6,1.8h0c0,0,1.1,0,1.1,0l-2.4-6.6h0c0,0-1.1,0-1.1,0l-2.5,6.7h1.1l.7-1.9ZM82,58.8l.9,2.6h-1.8l.9-2.6Z" style="fill:#fff; stroke-width:0px;"/><polygon points="88.2 59.1 91.4 64.2 91.4 64.2 92.5 64.2 92.5 57.5 91.5 57.5 91.5 62.6 88.4 57.6 88.4 57.5 87.2 57.5 87.2 64.2 88.2 64.2 88.2 59.1" style="fill:#fff; stroke-width:0px;"/><polygon points="103.9 63.3 100.6 63.3 100.6 57.5 99.5 57.5 99.5 64.2 103.9 64.2 103.9 63.3" style="fill:#fff; stroke-width:0px;"/><rect x="106.3" y="57.5" width="1" height="6.7" style="fill:#fff; stroke-width:0px;"/><polygon points="111.5 61.2 114.7 61.2 114.7 60.3 111.5 60.3 111.5 58.5 115.1 58.5 115.1 57.5 110.4 57.5 110.4 64.2 111.5 64.2 111.5 61.2" style="fill:#fff; stroke-width:0px;"/><polygon points="119.1 64.2 120.2 64.2 120.2 58.5 122.4 58.5 122.4 57.5 116.9 57.5 116.9 58.5 119.1 58.5 119.1 64.2" style="fill:#fff; stroke-width:0px;"/><path d="M125.1,63.7c0,0,.2.1.3.2.1,0,.2.1.4.2.2,0,.4.1.6.2.2,0,.5,0,.8,0s.6,0,.9,0c.3,0,.6-.2.8-.3.3-.2.5-.4.6-.6.2-.3.3-.6.3-1s0-.5-.1-.7c0-.2-.2-.4-.3-.5-.1-.1-.3-.3-.5-.4-.2,0-.4-.2-.6-.2l-1.9-.4c0,0-.2,0-.3,0,0,0-.2,0-.2-.1,0,0-.1-.1-.2-.2,0,0,0-.2,0-.3,0-.2,0-.4.1-.5,0-.1.2-.2.4-.3.1,0,.3-.1.5-.2.2,0,.3,0,.5,0s.4,0,.5,0c.2,0,.3.1.5.2.1,0,.3.2.4.4,0,.2.1.4.2.6h0c0,0,1,0,1,0h0c0-.3,0-.5,0-.7,0-.3-.2-.5-.3-.7-.2-.2-.4-.4-.8-.6-.3-.2-.8-.2-1.4-.2s-.8,0-1,.2c-.3.1-.5.3-.7.5-.2.2-.3.4-.4.7,0,.2-.1.5-.1.8s0,.5.2.7c.1.2.2.4.4.5.2.1.3.2.5.3.2,0,.3.1.4.1l1.3.3c.3,0,.5.1.7.2.2,0,.3.1.4.2,0,0,.2.2.2.3,0,.1,0,.2,0,.4s0,.4-.2.5c-.1.1-.2.2-.4.3-.2,0-.3.1-.5.2-.2,0-.4,0-.5,0s-.4,0-.6,0c-.2,0-.4-.1-.5-.2-.2-.1-.3-.3-.4-.4-.1-.2-.2-.4-.2-.7h0c0,0-1,0-1,0h0c0,.4,0,.7.1,1,0,.3.3.6.6.8" style="fill:#fff; stroke-width:0px;"/><path d="M35.7,78.6c.4-.2.7-.5.9-.8.2-.3.4-.7.5-1.1,0-.4.1-.8.1-1.2s0-.9-.2-1.3c-.1-.4-.3-.7-.6-1-.2-.3-.5-.5-.9-.7-.4-.2-.8-.2-1.2-.2h-2.7v6.7h2.7c.5,0,1-.1,1.4-.3M32.6,78v-4.9h1.6c.6,0,1,.2,1.4.6.3.4.5,1,.5,1.8s-.2,1.4-.5,1.9c-.3.4-.8.6-1.3.6h-1.6Z" style="fill:#fff; stroke-width:0px;"/><rect x="39.6" y="72.2" width="1" height="6.7" style="fill:#fff; stroke-width:0px;"/><path d="M43.8,73.2c-.3.3-.5.7-.6,1.1-.1.4-.2.8-.2,1.2s0,.4,0,.6c0,.2,0,.5.1.7,0,.3.2.5.3.8.1.3.3.5.6.8,0,0,.2.2.3.3.1,0,.3.2.4.2.2,0,.4.1.6.2.2,0,.5,0,.8,0,.5,0,.9,0,1.3-.3.3-.2.6-.4.8-.6l.2.8h.7v-3.7h-3v.9h2.1c0,.3,0,.6-.1.9,0,.3-.3.5-.6.7-.1,0-.2.2-.4.2-.1,0-.2,0-.3.1-.1,0-.2,0-.3,0-.1,0-.2,0-.3,0-.4,0-.8,0-1-.2-.3-.1-.5-.3-.6-.6-.2-.2-.3-.5-.3-.8,0-.3,0-.6,0-1s0-.8.2-1.1c.1-.3.3-.6.4-.8.2-.2.4-.4.7-.5.4-.2.9-.2,1.4-.1.2,0,.4.1.5.2.2,0,.3.2.5.4.1.2.2.4.3.7h0c0,0,1,0,1,0h0c0-.5-.2-.8-.4-1.1-.2-.3-.4-.5-.7-.7-.3-.2-.6-.3-.9-.4-.3,0-.6-.1-.9-.1-.5,0-1,.1-1.4.3-.4.2-.7.5-1,.8" style="fill:#fff; stroke-width:0px;"/><path d="M56.4,72.6c-.3-.2-.6-.3-.9-.4-.3,0-.6-.1-.9-.1-.5,0-1,.1-1.4.3-.4.2-.7.5-1,.8-.3.3-.5.7-.6,1.1-.1.4-.2.8-.2,1.2s0,.4,0,.6c0,.2,0,.5.1.7,0,.3.2.5.3.8.1.3.3.5.6.8,0,0,.2.2.3.3.1,0,.3.2.4.2.2,0,.4.1.6.2.2,0,.5,0,.8,0,.5,0,.9,0,1.3-.3.3-.2.6-.4.8-.6l.2.8h.7v-3.7h-3v.9h2.1c0,.3,0,.6-.1.9,0,.3-.3.5-.6.7-.1,0-.2.2-.4.2-.1,0-.2,0-.3.1-.1,0-.2,0-.3,0-.1,0-.2,0-.3,0-.4,0-.8,0-1-.2-.3-.1-.5-.3-.6-.6-.2-.2-.3-.5-.3-.8,0-.3,0-.6,0-1s0-.8.2-1.1c.1-.3.3-.6.4-.8h0c.2-.2.4-.4.7-.5.4-.2.9-.2,1.4-.1.2,0,.4.1.5.2.2,0,.3.2.5.4.1.2.2.4.3.7h0c0,0,1,0,1,0h0c0-.5-.2-.8-.4-1.1-.2-.3-.4-.5-.7-.7" style="fill:#fff; stroke-width:0px;"/><polygon points="65.1 73.2 65.1 72.2 60.2 72.2 60.2 79 65.2 79 65.2 78 61.2 78 61.2 76 64.8 76 64.8 75 61.2 75 61.2 73.2 65.1 73.2" style="fill:#fff; stroke-width:0px;"/><path d="M68.6,76.1h2.1c.3,0,.5,0,.6,0,.1,0,.3.1.3.2,0,.1.1.2.1.3,0,.1,0,.3,0,.4s0,.2,0,.3c0,.1,0,.3,0,.5,0,.2,0,.3,0,.5,0,.2,0,.3,0,.4h0c0,0,1.2,0,1.2,0v-.3h0c0,0-.1,0-.1-.1,0,0,0,0,0-.1,0,0,0,0,0-.2,0,0,0-.1,0-.2v-1.2c0-.2,0-.4-.1-.6,0-.2-.1-.3-.2-.4,0,0-.2-.2-.3-.2,0,0,0,0-.1,0,0,0,.1,0,.2-.1.1,0,.2-.2.3-.3,0-.1.2-.3.2-.5,0-.2,0-.4,0-.6,0-.4,0-.7-.2-.9-.1-.2-.3-.4-.5-.6-.2-.1-.5-.2-.7-.3-.3,0-.5,0-.8,0h-3.1v6.7h1v-2.8ZM68.6,73.1h2.1c.1,0,.2,0,.4,0,.1,0,.2,0,.4.1.1,0,.2.2.3.3,0,.1.1.3.1.6s0,.4-.1.5c0,.1-.2.2-.3.3-.1,0-.2.1-.4.2-.2,0-.3,0-.5,0h-2v-2.1Z" style="fill:#fff; stroke-width:0px;"/><polygon points="80.4 79 81.4 79 81.4 73.2 83.7 73.2 83.7 72.2 78.2 72.2 78.2 73.2 80.4 73.2 80.4 79" style="fill:#fff; stroke-width:0px;"/><path d="M86.8,76.1h2.1c.2,0,.4,0,.6,0,.1,0,.3.1.3.2,0,.1.1.2.1.3,0,.1,0,.3,0,.4s0,.2,0,.3c0,.1,0,.3,0,.5,0,.2,0,.3,0,.5,0,.2,0,.3,0,.4h0c0,0,1.2,0,1.2,0v-.3h0c0,0-.1,0-.1-.1,0,0,0,0,0-.1,0,0,0,0,0-.2,0,0,0-.1,0-.2v-1.2c0-.2,0-.4-.1-.6,0-.2-.1-.3-.2-.4,0,0-.2-.2-.3-.2,0,0,0,0-.1,0,0,0,.1,0,.2-.1.1,0,.2-.2.3-.3,0-.1.2-.3.2-.5,0-.2,0-.4,0-.6,0-.4,0-.7-.2-.9-.1-.2-.3-.4-.5-.6-.2-.1-.5-.2-.7-.3-.3,0-.5,0-.8,0h-3.1v6.7h1v-2.8ZM86.8,73.1h2.1c.1,0,.2,0,.4,0,.1,0,.2,0,.4.1.1,0,.2.2.3.3,0,.1.1.3.1.6s0,.4-.1.5c0,.1-.2.2-.3.3-.1,0-.2.1-.4.2-.2,0-.3,0-.5,0h-2v-2.1Z" style="fill:#fff; stroke-width:0px;"/><path d="M93.8,78.4c.2.2.5.4.8.5.3.1.7.2,1.2.2s.9,0,1.2-.2c.3-.1.6-.3.9-.6.2-.2.4-.5.5-.8.1-.3.2-.6.2-1v-4.3h-1v4.2c0,.3,0,.6-.1.9,0,.2-.2.4-.4.5-.2.1-.3.2-.5.3-.4.1-.8.1-1.2,0-.2,0-.4-.1-.5-.3-.1-.1-.3-.3-.4-.5,0-.2-.1-.5-.1-.9v-4.2h-1v4.5c0,.3,0,.6.2.9.1.3.3.6.5.8" style="fill:#fff; stroke-width:0px;"/><path d="M101.6,73c-.3.3-.5.7-.6,1.1-.1.4-.2.9-.2,1.4s0,1.2.3,1.6c.2.5.4.8.7,1.1.3.3.6.5,1,.6.4.1.7.2,1.1.2s.2,0,.4,0c.2,0,.3,0,.5-.1.2,0,.4-.1.6-.3.2-.1.4-.3.6-.5.2-.2.4-.4.5-.7.1-.3.3-.7.3-1.1h0c0,0-1,0-1,0h0c0,.4-.2.7-.3,1-.1.2-.3.4-.5.5-.2.1-.3.2-.5.2-.2,0-.3,0-.5,0-.4,0-.7,0-1-.2-.3-.1-.5-.3-.6-.6-.2-.2-.3-.5-.4-.8,0-.3-.1-.7-.1-1.1s0-.8.2-1.1c.1-.3.3-.6.4-.8.2-.2.4-.4.7-.5.2-.1.5-.2.8-.2s.3,0,.5,0c.2,0,.4,0,.5.2.2,0,.3.2.4.4.1.2.2.4.3.7h0c0,0,1,0,1,0h0c0-.4-.1-.6-.2-.9-.1-.3-.3-.5-.5-.7-.2-.2-.5-.4-.8-.5-.3-.1-.7-.2-1.1-.2s-.9,0-1.3.3c-.4.2-.7.4-1,.7" style="fill:#fff; stroke-width:0px;"/><polygon points="110 76.6 110.9 75.7 113.2 79 114.6 79 111.7 75 114.5 72.2 113.1 72.2 110 75.3 110 72.2 108.9 72.2 108.9 79 110 79 110 76.6" style="fill:#fff; stroke-width:0px;"/><path d="M116.8,78.5c0,0,.2.1.3.2.1,0,.2.1.4.2.2,0,.4.1.6.2.2,0,.5,0,.8,0s.6,0,.9,0c.3,0,.6-.2.9-.3.3-.2.5-.4.6-.6.2-.3.3-.6.3-1s0-.5-.1-.7c0-.2-.2-.4-.3-.5-.1-.1-.3-.3-.5-.4-.2,0-.4-.2-.6-.2l-1.9-.4c0,0-.2,0-.3,0,0,0-.2,0-.2-.1,0,0-.1-.1-.2-.2,0,0,0-.2,0-.3,0-.2,0-.4.1-.6,0-.1.2-.2.4-.3.1,0,.3-.1.5-.2.2,0,.3,0,.5,0s.4,0,.5,0c.2,0,.3.1.5.2.1,0,.3.2.4.4,0,.2.1.4.2.6h0c0,0,1,0,1,0h0c0-.3,0-.5,0-.7,0-.3-.2-.5-.4-.7-.2-.2-.4-.4-.8-.6-.3-.2-.8-.2-1.4-.2s-.8,0-1.1.2c-.3.1-.5.3-.7.5-.2.2-.3.4-.4.7,0,.3-.1.5-.1.8s0,.6.2.7c.1.2.2.4.4.5.2.1.3.2.5.3.2,0,.3.1.4.1l1.3.3c.3,0,.5.1.7.2.2,0,.3.1.4.2,0,0,.2.2.2.3,0,.1,0,.2,0,.4s0,.4-.2.5c-.1.1-.2.2-.4.3-.2,0-.3.1-.5.2-.2,0-.4,0-.5,0s-.4,0-.6,0c-.2,0-.4-.1-.6-.2-.2-.1-.3-.3-.4-.4-.1-.2-.2-.4-.2-.7h0c0,0-1,0-1,0h0c0,.4,0,.7.1,1,0,.3.3.6.6.8" style="fill:#fff; stroke-width:0px;"/><path d="M57.4,89.2h0c0-.1.2-.3.2-.5,0-.2,0-.4,0-.7,0-.4,0-.7-.2-.9-.1-.2-.3-.4-.5-.6-.2-.1-.5-.2-.7-.3-.3,0-.5,0-.8,0h-3.2v6.9h1.1v-2.9h2.1c.3,0,.5,0,.6.1.1,0,.3.2.3.3,0,.1.1.2.1.4,0,.1,0,.3,0,.4s0,.2,0,.3c0,.1,0,.3,0,.5,0,.2,0,.3,0,.5,0,.2,0,.3,0,.4h0c0,0,1.2,0,1.2,0v-.3h0c0,0-.1,0-.2-.1,0,0,0,0,0-.1,0,0,0,0,0-.2,0,0,0-.1,0-.2v-1.2c0-.2,0-.4-.1-.6,0-.2-.1-.3-.2-.4,0,0-.2-.2-.3-.2,0,0,0,0-.1,0,0,0,.1,0,.2-.1.1,0,.2-.2.3-.3M56.5,88.7c0,.1-.2.2-.3.3-.1,0-.3.1-.4.2-.2,0-.3,0-.5,0h-2v-2.1h2.2c.1,0,.2,0,.4,0,.1,0,.2,0,.4.1.1,0,.2.2.3.3,0,.1.1.3.1.6s0,.4-.1.6" style="fill:#fff; stroke-width:0px;"/><polygon points="65.5 87.1 65.5 86.2 60.4 86.2 60.4 93 65.5 93 65.5 92.1 61.5 92.1 61.5 90 65.2 90 65.2 89 61.5 89 61.5 87.1 65.5 87.1" style="fill:#fff; stroke-width:0px;"/><polygon points="73.5 86.2 72.5 86.2 72.5 91.4 69.3 86.2 69.2 86.2 68.1 86.2 68.1 93 69.1 93 69.1 87.8 72.4 93 72.4 93 73.5 93 73.5 86.2" style="fill:#fff; stroke-width:0px;"/><polygon points="81.3 86.2 75.7 86.2 75.7 87.1 78 87.1 78 93 79 93 79 87.1 81.3 87.1 81.3 86.2" style="fill:#fff; stroke-width:0px;"/><path d="M81.7,93h1.1l.7-1.9h2.6l.6,1.9h0c0,0,1.2,0,1.2,0l-2.5-6.8h0c0,0-1.1,0-1.1,0l-2.6,6.9ZM85.7,90.1h-1.9l1-2.7.9,2.7Z" style="fill:#fff; stroke-width:0px;"/><polygon points="90.1 86.2 90.1 93 94.5 93 94.5 92.1 91.1 92.1 91.1 86.2 90.1 86.2" style="fill:#fff; stroke-width:0px;"/><path d="M97.3,86.7c-.2.2-.3.4-.4.7,0,.3-.1.5-.1.8s0,.6.2.8c.1.2.2.4.4.5.2.1.3.2.5.3.2,0,.3.1.4.1l1.4.3c.3,0,.5.1.7.2.2,0,.3.1.4.2,0,0,.2.2.2.3,0,.1,0,.3,0,.4s0,.4-.2.5c-.1.1-.3.2-.4.3-.2,0-.4.1-.6.2-.2,0-.4,0-.5,0s-.4,0-.6,0c-.2,0-.4-.1-.6-.2-.2-.1-.3-.3-.4-.5-.1-.2-.2-.4-.2-.7h0c0,0-1,0-1,0h0c0,.4,0,.7.1,1,0,.3.3.6.6.8,0,0,.2.1.3.2.1,0,.2.2.4.2.2,0,.4.1.6.2.2,0,.5,0,.8,0s.6,0,.9,0c.3,0,.6-.2.9-.3.3-.2.5-.4.7-.6.2-.3.3-.6.3-1s0-.5-.1-.7c0-.2-.2-.4-.3-.5-.1-.2-.3-.3-.5-.4-.2,0-.4-.2-.6-.2l-1.9-.4c0,0-.2,0-.3,0,0,0-.2,0-.2-.1,0,0-.1-.1-.2-.2,0,0,0-.2,0-.3,0-.2,0-.4.1-.6,0-.1.2-.3.4-.3.1,0,.3-.1.5-.2.2,0,.3,0,.5,0s.4,0,.6,0c.2,0,.4.1.5.2.1,0,.3.2.4.4,0,.2.1.4.2.6h0c0,0,1,0,1,0h0c0-.3,0-.5,0-.7,0-.3-.2-.5-.4-.7-.2-.2-.5-.4-.8-.6-.3-.2-.8-.2-1.4-.2s-.8,0-1.1.2c-.3.1-.6.3-.7.5" style="fill:#fff; stroke-width:0px;"/><path d="M56.8,98c-.3,0-.5,0-.7.1-.2,0-.4.2-.5.3-.1.1-.2.3-.3.5,0,.2-.1.4-.1.6s0,.3,0,.4c0,.1,0,.2.1.4,0,.1.1.2.2.3,0,0,.2.2.3.3-.3.2-.5.3-.7.4-.2.2-.4.3-.5.5-.1.2-.2.3-.2.5,0,.2,0,.4,0,.6s0,.3,0,.5c0,.2.1.4.3.6.1.2.3.4.6.5.3.1.6.2,1,.2s.5,0,.7,0c.2,0,.4-.1.5-.2.2,0,.3-.2.4-.3.1,0,.2-.2.3-.3l.6.7h1.2l-1.2-1.5c.2-.3.3-.6.4-.9,0-.3.1-.6.2-.8h0c0,0-.9,0-.9,0h0c0,.2,0,.3,0,.4,0,0,0,.2,0,.2,0,0,0,.1,0,.2,0,0,0,0,0,.1l-1-1.2c.1,0,.2-.1.3-.2.1-.1.3-.2.4-.4.1-.1.2-.3.3-.5,0-.2.1-.4.1-.6s0-.3,0-.5c0-.2-.2-.3-.3-.5-.1-.1-.3-.2-.5-.3-.2,0-.4-.1-.7-.1M57.7,103.3c-.3.4-.8.6-1.3.6s-.2,0-.3,0c-.1,0-.2,0-.4-.2-.1,0-.2-.2-.3-.3,0-.1-.1-.3-.1-.5s0-.3,0-.4c0-.1.1-.2.2-.3,0-.1.2-.2.3-.3.1,0,.3-.2.4-.3l1.4,1.7ZM57.3,99.8c0,.1-.1.2-.2.3,0,0-.2.2-.3.2,0,0-.1.1-.2.2,0,0,0-.1-.2-.2,0,0-.1-.2-.2-.3,0,0-.1-.2-.2-.3,0,0,0-.2,0-.3s0-.1,0-.2c0,0,0-.1,0-.2,0,0,.1-.1.2-.2,0,0,.2,0,.4,0s.1,0,.2,0c0,0,.1,0,.2,0,0,0,.1.1.2.2,0,0,0,.2,0,.3s0,.2,0,.3" style="fill:#fff; stroke-width:0px;"/><path d="M66.3,104.2c0,0,.2.1.3.2.1,0,.2.1.4.2.2,0,.4.1.6.2.2,0,.5,0,.8,0s.6,0,.9,0c.3,0,.6-.2.9-.3.3-.2.5-.4.6-.6.2-.3.3-.6.3-1s0-.5-.1-.7c0-.2-.2-.4-.3-.5-.1-.1-.3-.3-.5-.4-.2,0-.4-.2-.6-.2l-1.9-.4c0,0-.2,0-.3,0,0,0-.2,0-.2-.1,0,0-.1-.1-.2-.2,0,0,0-.2,0-.3,0-.2,0-.4.1-.6,0-.1.2-.2.4-.3.1,0,.3-.1.5-.2.2,0,.3,0,.5,0s.4,0,.5,0c.2,0,.3.1.5.2.1,0,.3.2.4.4,0,.2.1.4.2.6h0c0,0,1,0,1,0h0c0-.3,0-.5,0-.7,0-.3-.2-.5-.4-.7-.2-.2-.4-.4-.8-.6-.3-.2-.8-.2-1.4-.2s-.8,0-1,.2c-.3.1-.5.3-.7.5-.2.2-.3.4-.4.7,0,.2-.1.5-.1.8s0,.5.2.7c.1.2.2.4.4.5.2.1.3.2.5.3.2,0,.3.1.4.1l1.3.3c.3,0,.5.1.7.2.2,0,.3.1.4.2,0,0,.2.2.2.3,0,.1,0,.2,0,.4s0,.4-.2.5c-.1.1-.2.2-.4.3-.2,0-.3.1-.5.2-.2,0-.4,0-.5,0s-.4,0-.6,0c-.2,0-.4-.1-.6-.2-.2-.1-.3-.3-.4-.4-.1-.2-.2-.4-.2-.7h0c0,0-1,0-1,0h0c0,.4,0,.7.1,1,0,.3.3.6.6.8" style="fill:#fff; stroke-width:0px;"/><path d="M75.1,98l-2.5,6.7h1.1l.7-1.9h2.5l.6,1.8h0c0,0,1.1,0,1.1,0l-2.4-6.7h-1.1ZM74.7,101.9l.9-2.6.9,2.6h-1.8Z" style="fill:#fff; stroke-width:0px;"/><polygon points="81.5 98 80.5 98 80.5 104.7 84.9 104.7 84.9 103.8 81.5 103.8 81.5 98" style="fill:#fff; stroke-width:0px;"/><polygon points="88 101.7 91.6 101.7 91.6 100.8 88 100.8 88 98.9 91.9 98.9 91.9 98 86.9 98 86.9 104.7 91.9 104.7 91.9 103.8 88 103.8 88 101.7" style="fill:#fff; stroke-width:0px;"/><path d="M98.9,101.6c-.1-.1-.3-.3-.5-.4-.2,0-.4-.2-.6-.2l-1.9-.4c0,0-.2,0-.3,0,0,0-.2,0-.2-.1,0,0-.1-.1-.2-.2,0,0,0-.2,0-.3,0-.2,0-.4.1-.6,0-.1.2-.2.4-.3.1,0,.3-.1.5-.2.2,0,.3,0,.5,0s.4,0,.5,0c.2,0,.3.1.5.2.1,0,.3.2.4.4,0,.2.1.4.2.6h0c0,0,1,0,1,0h0c0-.3,0-.5,0-.7,0-.3-.2-.5-.4-.7-.2-.2-.4-.4-.8-.6-.3-.2-.8-.2-1.4-.2s-.8,0-1,.2c-.3.1-.5.3-.7.5-.2.2-.3.4-.4.7,0,.3-.1.5-.1.8s0,.5.2.7c.1.2.2.4.4.5.2.1.3.2.5.3.2,0,.3.1.4.1l1.3.3c.3,0,.5.1.7.2.2,0,.3.1.4.2,0,0,.2.2.2.3,0,.1,0,.2,0,.4s0,.4-.2.5c-.1.1-.2.2-.4.3-.2,0-.3.1-.5.2-.2,0-.4,0-.5,0s-.4,0-.6,0c-.2,0-.4-.1-.6-.2-.2-.1-.3-.3-.4-.4-.1-.2-.2-.4-.2-.7h0c0,0-1,0-1,0h0c0,.4,0,.7.1,1,0,.3.3.6.6.8,0,0,.2.1.3.2.1,0,.2.1.4.2.2,0,.4.1.6.2.2,0,.5,0,.8,0s.6,0,.9,0c.3,0,.6-.2.9-.3.3-.2.5-.4.6-.6.2-.3.3-.6.3-1s0-.5-.1-.7c0-.2-.2-.4-.3-.5" style="fill:#fff; stroke-width:0px;"/></svg>